<svg width="32" height="32" viewBox="0 0 32 32" fill="none" xmlns="http://www.w3.org/2000/svg">
<circle cx="12" cy="12" r="11.5" fill="#00BCD4" stroke="#121417"/>
<circle cx="20" cy="20" r="11.5" fill="white" stroke="#121417"/>
<path d="M23.1488 20.3319H24.1663V19.6419H23.2709L23.8407 16.667H22.5994L22.1619 19.6419H21.2359C21.202 19.4866 21.1478 19.2626 21.0731 18.9699C21.0053 18.6712 20.9205 18.3068 20.8188 17.8767L20.6356 17.0613H19.4553L19.262 17.8767C19.1602 18.3068 19.0721 18.6712 18.9974 18.9699C18.9296 19.2626 18.8787 19.4866 18.8448 19.6419H17.9291L17.461 16.667H16.1281L16.7284 19.6419H15.833V20.3319H16.8709L17.4814 23.3337H18.9059L19.1297 22.348C19.1975 22.0613 19.2688 21.7417 19.3434 21.3892C19.4248 21.0308 19.5028 20.6783 19.5774 20.3319H20.4118C20.4864 20.6783 20.5644 21.0308 20.6458 21.3892C20.7272 21.7417 20.8018 22.0613 20.8696 22.348L21.0935 23.3337H22.5689L23.1488 20.3319ZM20.0048 18.4143L20.2591 19.6419H19.7199L20.0048 18.4143ZM18.3055 22.0433H18.2852C18.2716 21.9478 18.2547 21.8253 18.2343 21.676C18.214 21.5206 18.1868 21.3384 18.1529 21.1294C18.0851 20.7112 18.0444 20.4454 18.0308 20.3319H18.7024C18.6752 20.4394 18.6447 20.5619 18.6108 20.6993C18.5769 20.8366 18.543 20.992 18.509 21.1652C18.4276 21.5117 18.3768 21.7357 18.3564 21.8372C18.3428 21.891 18.3327 21.9358 18.3259 21.9717C18.3191 22.0075 18.3123 22.0314 18.3055 22.0433ZM21.3784 20.3319H22.0398C21.9719 20.8157 21.9177 21.1981 21.877 21.4788C21.843 21.7596 21.8193 21.9478 21.8057 22.0433H21.765C21.7379 21.9239 21.7142 21.8193 21.6938 21.7297C21.6735 21.6341 21.6531 21.5445 21.6328 21.4609C21.6124 21.3773 21.5921 21.2936 21.5717 21.21C21.5581 21.1264 21.5412 21.0368 21.5208 20.9412C21.4937 20.8456 21.47 20.747 21.4496 20.6455C21.4293 20.5439 21.4055 20.4394 21.3784 20.3319Z" fill="#00BCD4"/>
</svg>
