<svg width="80" height="80" viewBox="0 0 80 80" fill="none" xmlns="http://www.w3.org/2000/svg">
<g clip-path="url(#clip0_1137_15614)">
<path d="M63.3333 55.2337C62.9725 54.7742 62.4854 54.4301 61.9317 54.2435C61.378 54.057 60.782 54.0362 60.2167 54.1837C56.8833 54.667 45.0833 58.217 42.3167 59.0503L34.3 48.5003C34.1466 48.2968 33.951 48.1288 33.7266 48.008C33.5022 47.8872 33.2544 47.8163 33 47.8003L21.5 47.067L21.4 46.667L10 49.1003L13.8167 67.017L25.2167 64.6003C27.0289 65.1282 28.7253 65.9933 30.2167 67.1503L37.5833 72.967C37.8144 73.1522 38.0842 73.2829 38.3728 73.3493C38.6614 73.4157 38.9613 73.416 39.25 73.3503C39.4558 73.3046 39.6528 73.2258 39.8333 73.117L62.7 59.7837L62.9 59.617C63.2075 59.2796 63.4708 58.9044 63.6833 58.5003C63.9121 57.972 64.0001 57.3934 63.9387 56.8209C63.8774 56.2484 63.6688 55.7016 63.3333 55.2337ZM15.1 65.0003L11.9667 50.3337L20.1167 48.5837L21.9167 57.0003L23.2333 63.267L15.1 65.0003ZM62.1 57.7503C61.9654 57.9772 61.815 58.1944 61.65 58.4003L38.95 71.667C38.8993 71.6963 38.8418 71.7117 38.7833 71.7117C38.7248 71.7117 38.6673 71.6963 38.6167 71.667L31.25 65.8503C29.3672 64.3807 27.1989 63.3192 24.8833 62.7337L23.55 56.667L21.8833 48.8003L32.9667 49.5503L42.0167 61.4503C42.1786 61.6516 42.2803 61.8946 42.3098 62.1512C42.3393 62.4079 42.2954 62.6676 42.1833 62.9003C41.8167 63.5837 40.9 63.8337 39.5167 63.667C39.4287 63.6462 39.3468 63.6053 39.2774 63.5474C39.208 63.4896 39.153 63.4164 39.1167 63.3337L32.45 55.6003L31.1833 56.6837L37.85 64.4337C38.219 64.8662 38.736 65.1455 39.3 65.217C41.9833 65.5503 43.1333 64.5337 43.65 63.5503C43.9099 63.0464 44.0241 62.48 43.98 61.9148C43.9358 61.3495 43.735 60.8078 43.4 60.3503C46.9167 59.3003 57.4833 56.167 60.4667 55.717C60.7301 55.6332 61.0117 55.6247 61.2796 55.6925C61.5476 55.7602 61.7913 55.9015 61.9833 56.1003C62.1387 56.3376 62.231 56.6106 62.2514 56.8935C62.2718 57.1764 62.2197 57.4599 62.1 57.717V57.7503Z" fill="#121417"/>
<path d="M62.1005 57.7175C61.9658 57.9444 61.8154 58.1616 61.6505 58.3674L38.9505 71.6675C38.8998 71.6967 38.8423 71.7121 38.7838 71.7121C38.7253 71.7121 38.6678 71.6967 38.6171 71.6675L31.2505 65.8508C29.3677 64.3811 27.1994 63.3197 24.8838 62.7341L23.5505 56.6674L21.8838 48.8008L32.9671 49.5508L42.0171 61.4508C42.1791 61.652 42.2807 61.895 42.3102 62.1517C42.3397 62.4083 42.2959 62.668 42.1838 62.9008C41.8171 63.5841 40.9005 63.8341 39.5171 63.6675C39.4292 63.6467 39.3473 63.6057 39.2779 63.5479C39.2084 63.49 39.1534 63.4169 39.1171 63.3341L32.4505 55.6008L31.1838 56.6841L37.8505 64.4341C38.2194 64.8666 38.7365 65.146 39.3005 65.2175C41.9838 65.5508 43.1338 64.5341 43.6505 63.5508C43.9103 63.0469 44.0246 62.4805 43.9804 61.9152C43.9363 61.35 43.7354 60.8082 43.4005 60.3508C46.9171 59.3008 57.4838 56.1674 60.4671 55.7174C60.7305 55.6337 61.0121 55.6252 61.2801 55.6929C61.5481 55.7607 61.7918 55.9019 61.9838 56.1008C62.1392 56.3381 62.2315 56.6111 62.2519 56.894C62.2723 57.1769 62.2202 57.4603 62.1005 57.7175Z" fill="white"/>
<path d="M23.2335 63.2341L15.1001 64.9674L11.9668 50.3008L20.1168 48.5508L21.9168 56.9674L23.2335 63.2341Z" fill="#00BCD4"/>
</g>
<path d="M68.6084 26.667C68.6084 37.7127 59.6541 46.667 48.6084 46.667C37.5627 46.667 28.6084 37.7127 28.6084 26.667C28.6084 15.6213 37.5627 6.66699 48.6084 6.66699C59.6541 6.66699 68.6084 15.6213 68.6084 26.667Z" fill="white"/>
<path fill-rule="evenodd" clip-rule="evenodd" d="M48.6084 45.0003C58.7336 45.0003 66.9417 36.7922 66.9417 26.667C66.9417 16.5418 58.7336 8.33366 48.6084 8.33366C38.4832 8.33366 30.2751 16.5418 30.2751 26.667C30.2751 36.7922 38.4832 45.0003 48.6084 45.0003ZM48.6084 46.667C59.6541 46.667 68.6084 37.7127 68.6084 26.667C68.6084 15.6213 59.6541 6.66699 48.6084 6.66699C37.5627 6.66699 28.6084 15.6213 28.6084 26.667C28.6084 37.7127 37.5627 46.667 48.6084 46.667Z" fill="#121417"/>
<path d="M53.8571 27.2195H55.553V26.0695H54.0606L55.0103 21.1113H52.9414L52.2122 26.0695H50.6689C50.6124 25.8107 50.522 25.4373 50.3976 24.9494C50.2846 24.4516 50.1432 23.8443 49.9737 23.1275L49.6684 21.7684H47.7012L47.379 23.1275C47.2094 23.8443 47.0625 24.4516 46.9381 24.9494C46.8251 25.4373 46.7403 25.8107 46.6837 26.0695H45.1575L44.3774 21.1113H42.1559L43.1564 26.0695H41.6641V27.2195H43.3938L44.4113 32.2224H46.7855L47.1586 30.5797C47.2716 30.1018 47.3903 29.5691 47.5147 28.9817C47.6504 28.3843 47.7804 27.7969 47.9047 27.2195H49.2953C49.4197 27.7969 49.5497 28.3843 49.6854 28.9817C49.821 29.5691 49.9454 30.1018 50.0584 30.5797L50.4315 32.2224H52.8905L53.8571 27.2195ZM48.617 24.0235L49.0409 26.0695H48.1422L48.617 24.0235ZM45.7849 30.0719H45.751C45.7284 29.9126 45.7002 29.7085 45.6662 29.4596C45.6323 29.2007 45.5871 28.8971 45.5306 28.5486C45.4175 27.8517 45.3497 27.4086 45.3271 27.2195H46.4463C46.4011 27.3987 46.3502 27.6028 46.2937 27.8318C46.2372 28.0608 46.1806 28.3196 46.1241 28.6083C45.9884 29.1858 45.9037 29.5592 45.8697 29.7284C45.8471 29.818 45.8302 29.8927 45.8189 29.9524C45.8076 30.0122 45.7962 30.052 45.7849 30.0719ZM50.9064 27.2195H52.0087C51.8956 28.0259 51.8052 28.6631 51.7373 29.131C51.6808 29.599 51.6412 29.9126 51.6186 30.0719H51.5508C51.5056 29.8728 51.466 29.6985 51.4321 29.5492C51.3982 29.3899 51.3642 29.2406 51.3303 29.1012C51.2964 28.9618 51.2625 28.8224 51.2286 28.683C51.206 28.5436 51.1777 28.3943 51.1438 28.235C51.0986 28.0757 51.059 27.9114 51.0251 27.7422C50.9912 27.5729 50.9516 27.3987 50.9064 27.2195Z" fill="#00BCD4"/>
<defs>
<clipPath id="clip0_1137_15614">
<rect width="53.8833" height="26.7167" fill="white" transform="translate(10 46.584)"/>
</clipPath>
</defs>
</svg>
