<svg width="124" height="104" viewBox="0 0 124 104" fill="none" xmlns="http://www.w3.org/2000/svg">
<path d="M84 19.9844H44V79.9964H84V19.9844Z" fill="#B2EBF2"/>
<path d="M44 80.016L4 60.012V0L44 20.004V80.016Z" fill="#B2EBF2"/>
<path d="M124 99.9996L84 79.9856V19.9736L124 39.9876V99.9996Z" fill="#B2EBF2"/>
<path d="M80 23.9844H40V83.9964H80V23.9844Z" fill="#26C5DA"/>
<path d="M40 84.016L0 64.012V4L40 24.004V84.016Z" fill="#80DEEA"/>
<path d="M120 104L80 83.9856V23.9736L120 43.9876V104Z" fill="#80DEEA"/>
<path d="M59.8001 57.4033H62.0601C61.9668 56.6433 61.9801 56.0367 62.1001 55.5833C62.2201 55.1167 62.4001 54.73 62.6401 54.4233C62.8935 54.1167 63.1735 53.85 63.4801 53.6233C63.8001 53.3833 64.1001 53.1167 64.3801 52.8233C64.6601 52.53 64.8935 52.1633 65.0801 51.7233C65.2801 51.2833 65.3801 50.7033 65.3801 49.9833C65.3801 49.3833 65.2735 48.85 65.0601 48.3833C64.8468 47.9167 64.5535 47.5233 64.1801 47.2033C63.8068 46.87 63.3601 46.6167 62.8401 46.4433C62.3335 46.2567 61.7868 46.15 61.2001 46.1233C60.7068 46.0967 60.2001 46.1567 59.6801 46.3033C59.1601 46.4367 58.6801 46.6833 58.2401 47.0433C57.8135 47.4033 57.4468 47.8833 57.1401 48.4833C56.8468 49.0833 56.6735 49.8233 56.6201 50.7033H59.1201C59.1735 49.9033 59.3801 49.31 59.7401 48.9233C60.1001 48.5367 60.5601 48.3433 61.1201 48.3433C61.6801 48.3433 62.0868 48.5233 62.3401 48.8833C62.5935 49.23 62.7201 49.6633 62.7201 50.1833C62.7201 50.61 62.6335 50.97 62.4601 51.2633C62.2868 51.5433 62.0735 51.81 61.8201 52.0633C61.5668 52.3033 61.2935 52.5567 61.0001 52.8233C60.7201 53.0767 60.4735 53.4033 60.2601 53.8033C60.0468 54.19 59.8868 54.67 59.7801 55.2433C59.6868 55.8167 59.6935 56.5367 59.8001 57.4033ZM59.4601 61.8833H62.3801V59.0433H59.4601V61.8833Z" fill="white"/>
</svg>
