<svg width="61" height="60" viewBox="0 0 61 60" fill="none" xmlns="http://www.w3.org/2000/svg">
<rect x="0.666992" width="60" height="60" rx="8" fill="white"/>
<path d="M39.1801 26.833H42.7921V23.781H39.1801V13.925H35.4841V39.685H39.1801V26.833ZM32.3201 16.585H20.1681V19.581H28.5961C28.2601 22.4557 27.2801 24.9383 25.6561 27.029C24.0508 29.101 21.7454 30.9117 18.7401 32.461L20.8121 35.289C22.9588 34.2063 24.7601 32.9837 26.2161 31.621C27.6908 30.2583 28.8761 28.793 29.7721 27.225C30.6868 25.6383 31.3401 23.9583 31.7321 22.185C32.1241 20.393 32.3201 18.5263 32.3201 16.585Z" fill="white"/>
<path d="M39.1801 26.833V25.833H38.1801V26.833H39.1801ZM42.7921 26.833V27.833H43.7921V26.833H42.7921ZM42.7921 23.781H43.7921V22.781H42.7921V23.781ZM39.1801 23.781H38.1801V24.781H39.1801V23.781ZM39.1801 13.925H40.1801V12.925H39.1801V13.925ZM35.4841 13.925V12.925H34.4841V13.925H35.4841ZM35.4841 39.685H34.4841V40.685H35.4841V39.685ZM39.1801 39.685V40.685H40.1801V39.685H39.1801ZM32.3201 16.585H33.3201V15.585H32.3201V16.585ZM20.1681 16.585V15.585H19.1681V16.585H20.1681ZM20.1681 19.581H19.1681V20.581H20.1681V19.581ZM28.5961 19.581L29.5893 19.6971L29.7198 18.581H28.5961V19.581ZM25.6561 27.029L24.8664 26.4156L24.8656 26.4165L25.6561 27.029ZM18.7401 32.461L18.2819 31.5722L17.242 32.1083L17.9334 33.052L18.7401 32.461ZM20.8121 35.289L20.0054 35.88L20.5061 36.5633L21.2624 36.1819L20.8121 35.289ZM26.2161 31.621L25.5374 30.8865L25.5328 30.8909L26.2161 31.621ZM29.7721 27.225L28.9057 26.7256L28.9038 26.7289L29.7721 27.225ZM31.7321 22.185L32.7085 22.4009L32.709 22.3987L31.7321 22.185ZM39.1801 27.833H42.7921V25.833H39.1801V27.833ZM43.7921 26.833V23.781H41.7921V26.833H43.7921ZM42.7921 22.781H39.1801V24.781H42.7921V22.781ZM40.1801 23.781V13.925H38.1801V23.781H40.1801ZM39.1801 12.925H35.4841V14.925H39.1801V12.925ZM34.4841 13.925V39.685H36.4841V13.925H34.4841ZM35.4841 40.685H39.1801V38.685H35.4841V40.685ZM40.1801 39.685V26.833H38.1801V39.685H40.1801ZM32.3201 15.585H20.1681V17.585H32.3201V15.585ZM19.1681 16.585V19.581H21.1681V16.585H19.1681ZM20.1681 20.581H28.5961V18.581H20.1681V20.581ZM27.6028 19.4649C27.286 22.1758 26.3681 24.4823 24.8664 26.4156L26.4458 27.6425C28.1921 25.3944 29.2342 22.7355 29.5893 19.6971L27.6028 19.4649ZM24.8656 26.4165C23.3715 28.345 21.1938 30.071 18.2819 31.5722L19.1983 33.3498C22.2971 31.7523 24.73 29.857 26.4466 27.6415L24.8656 26.4165ZM17.9334 33.052L20.0054 35.88L21.6187 34.698L19.5467 31.87L17.9334 33.052ZM21.2624 36.1819C23.4772 35.0648 25.3613 33.7906 26.8994 32.3511L25.5328 30.8909C24.1588 32.1767 22.4403 33.3479 20.3618 34.3961L21.2624 36.1819ZM26.8948 32.3555C28.4361 30.9312 29.6884 29.3871 30.6403 27.7211L28.9038 26.7289C28.0638 28.1989 26.9454 29.5855 25.5374 30.8866L26.8948 32.3555ZM30.6384 27.7244C31.6036 26.0502 32.2943 24.2746 32.7085 22.4008L30.7557 21.9692C30.3859 23.6421 29.7699 25.2265 28.9057 26.7256L30.6384 27.7244ZM32.709 22.3987C33.1172 20.5326 33.3201 18.594 33.3201 16.585H31.3201C31.3201 18.4586 31.131 20.2535 30.7552 21.9713L32.709 22.3987Z" fill="#121417"/>
<path d="M15.667 44.9997C16.7781 42.7775 17.8892 42.7775 19.0003 44.9997C20.1114 47.2219 21.2225 47.2219 22.3337 44.9997C23.4448 42.7775 24.5559 42.7775 25.667 44.9997C26.7781 47.2219 27.8892 47.2219 29.0003 44.9997C30.1114 42.7775 31.2225 42.7775 32.3337 44.9997C33.4448 47.2219 34.5559 47.2219 35.667 44.9997C36.7781 42.7775 37.8892 42.7775 39.0003 44.9997C40.1114 47.2219 41.2225 47.2219 42.3337 44.9997C43.4448 42.7775 44.5559 42.7775 45.667 44.9997" stroke="#00BCD4" stroke-width="1.5" stroke-linecap="round"/>
</svg>
