<svg width="60" height="60" viewBox="0 0 60 60" fill="none" xmlns="http://www.w3.org/2000/svg">
<rect width="60" height="60" rx="8" fill="white"/>
<path d="M29.6936 29.6709H47.124C46.9972 34.2281 45.1389 38.5737 41.9167 41.8166C38.6945 45.0594 34.3609 46.9454 29.8045 47.1013L29.6936 29.6709Z" fill="#00BCD4" stroke="#121417"/>
<path d="M27.0145 29.1704V45.369C24.1649 44.9674 21.4692 43.8161 19.2054 42.0285C16.7957 40.1258 14.9739 37.5798 13.9505 34.685C12.9271 31.7902 12.7441 28.6649 13.4225 25.6704C14.1009 22.676 15.6131 19.9347 17.7842 17.7637C19.9552 15.5926 22.6965 14.0804 25.6909 13.402C28.6854 12.7236 31.8107 12.9066 34.7055 13.93C37.6003 14.9533 40.1463 16.7752 42.049 19.1849C43.8366 21.4487 44.9879 24.1444 45.3895 26.994H27.5145H27.0145V27.494V29.1704Z" fill="white" stroke="#121417"/>
</svg>
