<svg width="53" height="24" viewBox="0 0 53 24" fill="none" xmlns="http://www.w3.org/2000/svg">
<path d="M8.28596 5.77759C8.94956 6.13039 9.45716 6.60439 9.80996 7.18159V5.41639H13.6248V17.8424C13.6248 18.9872 13.4004 20.0216 12.9444 20.9516C12.4884 21.8816 11.7996 22.622 10.8696 23.1728C9.93956 23.7236 8.78516 23.9996 7.39916 23.9996C5.55596 23.9996 4.05836 23.5688 2.91236 22.6904C1.76756 21.812 1.11236 20.6408 0.949164 19.1516H4.72916C4.84916 19.6256 5.13356 20.0036 5.57276 20.2796C6.02036 20.5556 6.57116 20.6924 7.22636 20.6924C8.00996 20.6924 8.63876 20.468 9.11276 20.012C9.57716 19.556 9.81836 18.8324 9.81836 17.8328V16.0676C9.44756 16.6448 8.93156 17.1176 8.27636 17.4884C7.62236 17.8496 6.85556 18.0308 5.97716 18.0308C4.95236 18.0308 4.02236 17.7644 3.18716 17.2388C2.35196 16.7132 1.69796 15.9644 1.21556 14.9828C0.734364 14.0108 0.493164 12.8828 0.493164 11.6072C0.493164 10.3316 0.734364 9.20479 1.21676 8.23999C1.69916 7.27519 2.35316 6.52639 3.18836 6.00919C4.02356 5.49199 4.95356 5.22559 5.97836 5.22559C6.85676 5.22559 7.62356 5.40679 8.28596 5.75959V5.77639V5.77759ZM9.01796 9.39439C8.49236 8.84359 7.84676 8.56759 7.08956 8.56759C6.33236 8.56759 5.68556 8.84359 5.16116 9.38599C4.63556 9.92839 4.36916 10.6772 4.36916 11.6252C4.36916 12.5732 4.63556 13.3304 5.16116 13.8896C5.68676 14.4488 6.33236 14.7248 7.08956 14.7248C7.84676 14.7248 8.49356 14.4488 9.01796 13.898C9.54356 13.3472 9.80996 12.5972 9.80996 11.642C9.80996 10.6868 9.54356 9.93679 9.01796 9.38599V9.39439Z" fill="#121417"/>
<path d="M19.0941 1.36133V17.8697H15.2793V1.36133H19.0941Z" fill="#121417"/>
<path d="M21.0229 3.5388C20.6005 3.1428 20.3857 2.6604 20.3857 2.0748C20.3857 1.4892 20.6005 0.99 21.0229 0.594C21.4453 0.198 21.9961 0 22.6585 0C23.3209 0 23.8465 0.198 24.2773 0.594C24.7081 0.99 24.9145 1.4808 24.9145 2.0748C24.9145 2.6688 24.6997 3.1428 24.2773 3.5388C23.8549 3.9348 23.3125 4.1328 22.6585 4.1328C22.0045 4.1328 21.4441 3.9348 21.0229 3.5388ZM24.5617 5.4252V17.8692H20.7469V5.4168H24.5617V5.4252Z" fill="#121417"/>
<path d="M37.2808 6.7001C38.1508 7.6469 38.59 8.9393 38.59 10.5929V17.8613H34.8016V11.1017C34.8016 10.2665 34.5868 9.6209 34.156 9.1637C33.7252 8.7077 33.1396 8.4749 32.416 8.4749C31.6924 8.4749 31.1068 8.7077 30.6772 9.1637C30.2464 9.6281 30.0316 10.2749 30.0316 11.1017V17.8613H26.2168V5.4173H30.0316V7.0709C30.4192 6.5201 30.9364 6.0893 31.5904 5.7617C32.2444 5.4425 32.9764 5.2793 33.7948 5.2793C35.2504 5.2793 36.4132 5.7533 37.282 6.7001H37.2808Z" fill="#121417"/>
<path d="M47.1676 5.77759C47.8312 6.13039 48.3388 6.60439 48.6916 7.18159V5.41639H52.5064V17.8424C52.5064 18.9872 52.282 20.0216 51.826 20.9516C51.37 21.8816 50.6812 22.622 49.7512 23.1728C48.8212 23.7236 47.6668 23.9996 46.2808 23.9996C44.4376 23.9996 42.94 23.5688 41.794 22.6904C40.6492 21.812 39.994 20.6408 39.8308 19.1516H43.6024C43.7224 19.6256 44.0068 20.0036 44.446 20.2796C44.8936 20.5556 45.4444 20.6924 46.0996 20.6924C46.8832 20.6924 47.512 20.468 47.986 20.012C48.4504 19.556 48.6916 18.8324 48.6916 17.8328V16.0676C48.3208 16.6448 47.8048 17.1176 47.1496 17.4884C46.4956 17.8496 45.7288 18.0308 44.8504 18.0308C43.8256 18.0308 42.8956 17.7644 42.0604 17.2388C41.2252 16.7132 40.57 15.9644 40.0888 14.9828C39.6064 14.0096 39.3652 12.8816 39.3652 11.6072C39.3652 10.3328 39.6064 9.20479 40.0888 8.23999C40.5712 7.27519 41.2252 6.52639 42.0604 6.00919C42.8956 5.49199 43.8256 5.22559 44.8504 5.22559C45.7288 5.22559 46.4956 5.40679 47.158 5.75959L47.1664 5.77639L47.1676 5.77759ZM47.8996 9.39439C47.374 8.84359 46.7284 8.56759 45.9712 8.56759C45.214 8.56759 44.5672 8.84359 44.0416 9.38599C43.516 9.92839 43.2496 10.6772 43.2496 11.6252C43.2496 12.5732 43.5172 13.3304 44.0416 13.8896C44.5672 14.4488 45.2128 14.7248 45.9712 14.7248C46.7296 14.7248 47.3752 14.4488 47.8996 13.898C48.4252 13.3472 48.6916 12.5972 48.6916 11.642C48.6916 10.6868 48.4252 9.93679 47.8996 9.38599V9.39439Z" fill="#121417"/>
</svg>
