<svg width="61" height="60" viewBox="0 0 61 60" fill="none" xmlns="http://www.w3.org/2000/svg">
<rect x="0.666992" width="60" height="60" rx="8" fill="white"/>
<path d="M38.667 26C38.667 32.6274 33.2944 38 26.667 38C20.0396 38 14.667 32.6274 14.667 26C14.667 19.3726 20.0396 14 26.667 14C33.2944 14 38.667 19.3726 38.667 26Z" fill="#00BCD4"/>
<path fill-rule="evenodd" clip-rule="evenodd" d="M26.667 37C32.7421 37 37.667 32.0751 37.667 26C37.667 19.9249 32.7421 15 26.667 15C20.5919 15 15.667 19.9249 15.667 26C15.667 32.0751 20.5919 37 26.667 37ZM26.667 38C33.2944 38 38.667 32.6274 38.667 26C38.667 19.3726 33.2944 14 26.667 14C20.0396 14 14.667 19.3726 14.667 26C14.667 32.6274 20.0396 38 26.667 38Z" fill="#121417"/>
<path d="M46.667 34C46.667 40.6274 41.2944 46 34.667 46C28.0396 46 22.667 40.6274 22.667 34C22.667 27.3726 28.0396 22 34.667 22C41.2944 22 46.667 27.3726 46.667 34Z" fill="white"/>
<path fill-rule="evenodd" clip-rule="evenodd" d="M34.667 45C40.7421 45 45.667 40.0751 45.667 34C45.667 27.9249 40.7421 23 34.667 23C28.5919 23 23.667 27.9249 23.667 34C23.667 40.0751 28.5919 45 34.667 45ZM34.667 46C41.2944 46 46.667 40.6274 46.667 34C46.667 27.3726 41.2944 22 34.667 22C28.0396 22 22.667 27.3726 22.667 34C22.667 40.6274 28.0396 46 34.667 46Z" fill="#121417"/>
<path d="M37.8158 34.3319H38.8333V33.6419H37.9379L38.5077 30.667H37.2664L36.8289 33.6419H35.9029C35.869 33.4866 35.8147 33.2626 35.7401 32.9699C35.6723 32.6712 35.5875 32.3068 35.4858 31.8767L35.3026 31.0613H34.1223L33.929 31.8767C33.8272 32.3068 33.739 32.6712 33.6644 32.9699C33.5966 33.2626 33.5457 33.4866 33.5118 33.6419H32.5961L32.128 30.667H30.7951L31.3954 33.6419H30.5V34.3319H31.5379L32.1484 37.3337H33.5729L33.7967 36.348C33.8645 36.0613 33.9358 35.7417 34.0104 35.3892C34.0918 35.0308 34.1698 34.6783 34.2444 34.3319H35.0788C35.1534 34.6783 35.2314 35.0308 35.3128 35.3892C35.3942 35.7417 35.4688 36.0613 35.5366 36.348L35.7605 37.3337H37.2359L37.8158 34.3319ZM34.6718 32.4143L34.9261 33.6419H34.3869L34.6718 32.4143ZM32.9725 36.0433H32.9522C32.9386 35.9478 32.9217 35.8253 32.9013 35.676C32.881 35.5206 32.8538 35.3384 32.8199 35.1294C32.7521 34.7112 32.7114 34.4454 32.6978 34.3319H33.3694C33.3422 34.4394 33.3117 34.5619 33.2778 34.6993C33.2439 34.8366 33.2099 34.992 33.176 35.1652C33.0946 35.5117 33.0438 35.7357 33.0234 35.8372C33.0098 35.891 32.9997 35.9358 32.9929 35.9717C32.9861 36.0075 32.9793 36.0314 32.9725 36.0433ZM36.0454 34.3319H36.7068C36.6389 34.8157 36.5847 35.1981 36.544 35.4788C36.51 35.7596 36.4863 35.9478 36.4727 36.0433H36.432C36.4049 35.9239 36.3812 35.8193 36.3608 35.7297C36.3405 35.6341 36.3201 35.5445 36.2998 35.4609C36.2794 35.3773 36.2591 35.2936 36.2387 35.21C36.2251 35.1264 36.2082 35.0368 36.1878 34.9412C36.1607 34.8456 36.137 34.747 36.1166 34.6455C36.0963 34.5439 36.0725 34.4394 36.0454 34.3319Z" fill="#00BCD4"/>
</svg>
