<svg width="60" height="60" viewBox="0 0 60 60" fill="none" xmlns="http://www.w3.org/2000/svg">
<rect width="60" height="60" rx="8" fill="white"/>
<rect x="13.6124" y="16.5479" width="21" height="29" transform="rotate(-15 13.6124 16.5479)" fill="#00BCD4" stroke="#121417"/>
<circle cx="39.5" cy="29" r="7" fill="white" stroke="#121417"/>
<path d="M18.5098 29H15H14.4475L14.5025 29.5498L16.5025 49.5498L16.5475 50H17H45H45.4525L45.4975 49.5498L47.4975 29.5498L47.5525 29H47H43.4902C43.2277 22.3282 37.7361 17 31 17C24.2639 17 18.7723 22.3282 18.5098 29ZM31 22C34.9741 22 38.2263 25.091 38.4836 29H23.5164C23.7737 25.091 27.0259 22 31 22Z" fill="white" stroke="#121417"/>
<line x1="22" y1="37" x2="41" y2="37" stroke="#00BCD4"/>
<line x1="22" y1="41" x2="41" y2="41" stroke="#00BCD4"/>
<line x1="25.5" y1="44.5" x2="25.5" y2="33.5" stroke="#00BCD4"/>
<line x1="29.5" y1="44.5" x2="29.5" y2="33.5" stroke="#00BCD4"/>
<line x1="33.5" y1="44.5" x2="33.5" y2="33.5" stroke="#00BCD4"/>
<line x1="37.5" y1="44.5" x2="37.5" y2="33.5" stroke="#00BCD4"/>
</svg>
