<svg width="40" height="40" viewBox="0 0 40 40" fill="none" xmlns="http://www.w3.org/2000/svg">
<rect width="40" height="40" rx="20" fill="white"/>
<g clip-path="url(#clip0_1137_15597)">
<path d="M6.33667 33.2162L14.0718 9.61655C14.3057 8.89263 14.991 8.40234 15.7598 8.40234H34.2218C35.4251 8.40234 36.2842 9.55732 35.9098 10.686L28.1781 34.2856C27.9441 35.0095 27.2588 35.4998 26.49 35.4998H8.02475C6.82136 35.4998 5.96228 34.3448 6.33667 33.2162Z" fill="#121417"/>
<path d="M32.4697 4.5H14.0077C13.2389 4.5 12.5537 4.99029 12.3197 5.7142L8.1379 17.9484C7.76686 19.077 8.6226 20.232 9.82598 20.232H21.6459L4.08651 29.9357C3.71547 31.0644 4.57121 32.2194 5.77459 32.2194H24.2432C25.012 32.2194 25.6973 31.7291 25.9313 31.0051L34.1611 6.78362C34.5321 5.65497 33.6764 4.5 32.473 4.5H32.4697Z" fill="#00BCD4"/>
<path d="M11.9816 24.2085C12.2497 24.7248 12.8895 24.9273 13.4141 24.6634L17.8172 22.332L26.0133 18.202C26.609 17.9014 26.9147 17.1919 26.6429 16.5903C26.3506 15.9471 25.577 15.6877 24.9507 16.0018L17.7949 19.6089L17.4185 18.8882L26.5313 14.2942C27.127 13.9936 27.4327 13.2841 27.1609 12.6825C26.8686 12.0393 26.095 11.7799 25.4687 12.094L16.2917 16.7169L15.9152 15.9961L23.5608 12.1448C24.1565 11.8443 24.4622 11.1348 24.1904 10.5332C23.8981 9.89001 23.1245 9.63056 22.4982 9.94472L14.7901 13.8277L14.4137 13.1069L19.8564 10.3632C20.4521 10.0627 20.7578 9.35319 20.486 8.75156C20.1937 8.10838 19.4201 7.84892 18.7938 8.16308L12.1886 11.4915L10.6804 12.1776C10.1559 12.4416 9.95016 13.0714 10.2183 13.5878L11.989 24.208L11.9816 24.2085Z" fill="#121417"/>
<path d="M10.2988 21.1621V13.4121L13.448 20.8323L10.2988 21.1621Z" fill="#121417"/>
</g>
<defs>
<clipPath id="clip0_1137_15597">
<rect width="32" height="31" fill="white" transform="translate(4 4.5)"/>
</clipPath>
</defs>
</svg>
