<svg width="61" height="60" viewBox="0 0 61 60" fill="none" xmlns="http://www.w3.org/2000/svg">
<rect x="0.333008" width="60" height="60" rx="8" fill="white"/>
<path d="M16.833 15.5H42.833V44C42.833 45.933 41.266 47.5 39.333 47.5H20.333C18.4 47.5 16.833 45.933 16.833 44V15.5Z" fill="white" stroke="#121417"/>
<path d="M42.833 12.5L42.833 17.5L19.333 17.5C17.9523 17.5 16.833 16.3807 16.833 15C16.833 13.6193 17.9523 12.5 19.333 12.5L42.833 12.5Z" fill="#00BCD4" stroke="#121417"/>
<path d="M19.833 21.7217L39.833 21.7217V27.7217L19.833 27.7217V21.7217Z" fill="#00BCD4"/>
<path d="M39.2279 42.0697V39.4803V39.0434L38.7949 38.9848L38.7279 39.4803C38.7949 38.9848 38.7947 38.9848 38.7944 38.9848L38.7938 38.9847L38.7918 38.9844L38.7853 38.9836L38.7627 38.9807C38.7434 38.9784 38.7156 38.9751 38.6799 38.9712C38.6084 38.9633 38.5051 38.953 38.3738 38.9424C38.1113 38.9212 37.7363 38.8989 37.2802 38.8939C36.3699 38.884 35.127 38.9427 33.8062 39.2205C31.705 39.6626 29.3481 40.6762 27.8683 42.9005C27.9422 41.9619 28.1499 40.8148 28.6496 39.6872C29.2173 38.406 30.1616 37.1489 31.7276 36.2389C33.2969 35.3269 35.529 34.7414 38.7071 34.8733L39.2279 34.895V34.3738V32.0038L46.4648 37.4662L39.2279 42.0697Z" fill="#00BCD4" stroke="#121417"/>
</svg>
