<svg width="60" height="60" viewBox="0 0 60 60" fill="none" xmlns="http://www.w3.org/2000/svg">
<rect width="60" height="60" rx="8" fill="white"/>
<rect x="11.126" y="16" width="26" height="32" fill="white" stroke="#121417"/>
<rect x="15.126" y="12" width="26" height="32" fill="white" stroke="#121417"/>
<line x1="22.126" y1="24" x2="34.126" y2="24" stroke="#00BCD4"/>
<line x1="22.126" y1="28.5" x2="34.126" y2="28.5" stroke="#00BCD4"/>
<line x1="22.126" y1="33" x2="30.126" y2="33" stroke="#00BCD4"/>
<path d="M42.3711 24.3115L42.0176 23.9579L41.664 24.3115L33.164 32.8115L33.0176 32.9579V33.165V35.965V36.465H33.5176H36.3176H36.5247L36.6711 36.3186L45.1711 27.8186L45.5247 27.465L45.1711 27.1115L42.3711 24.3115Z" fill="#00BCD4" stroke="#121417"/>
<path d="M47.3167 19.3923L46.9632 19.0387L46.6096 19.3923L43.7812 22.2207L43.4277 22.5742L43.7812 22.9278L46.6096 25.7562L46.9632 26.1097L47.3167 25.7562L50.1451 22.9278L50.4987 22.5742L50.1451 22.2207L47.3167 19.3923Z" fill="#00BCD4" stroke="#121417"/>
</svg>
